<svg width="716" height="162" viewBox="0 0 716 162" fill="none" xmlns="http://www.w3.org/2000/svg">
<path d="M10.726 143.691L40 143.691L40 147.513L10.726 147.513L10.726 143.691ZM28.45 138.605C26.07 138.605 23.998 138.129 22.234 137.177C20.442 136.225 19.056 134.909 18.076 133.229C17.096 131.521 16.606 129.575 16.606 127.391C16.606 124.563 17.292 122.239 18.664 120.419C20.036 118.571 21.94 117.353 24.376 116.765L24.376 120.881C22.976 121.273 21.87 122.043 21.058 123.191C20.246 124.311 19.84 125.711 19.84 127.391C19.84 129.575 20.596 131.339 22.108 132.683C23.592 134.027 25.706 134.699 28.45 134.699C31.222 134.699 33.364 134.027 34.876 132.683C36.388 131.339 37.144 129.575 37.144 127.391C37.144 125.711 36.752 124.311 35.968 123.191C35.184 122.071 34.064 121.301 32.608 120.881L32.608 116.765C34.96 117.381 36.85 118.613 38.278 120.461C39.678 122.309 40.378 124.619 40.378 127.391C40.378 129.575 39.888 131.521 38.908 133.229C37.928 134.909 36.542 136.225 34.75 137.177C32.958 138.129 30.858 138.605 28.45 138.605ZM16.564 100.241C16.564 98.5054 16.942 96.9374 17.698 95.5374C18.426 94.1374 19.532 93.0454 21.016 92.2614C22.5 91.4494 24.306 91.0434 26.434 91.0434L40 91.0434L40 94.8234L26.98 94.8234C24.684 94.8234 22.934 95.3974 21.73 96.5454C20.498 97.6934 19.882 99.2614 19.882 101.249C19.882 103.265 20.512 104.875 21.772 106.079C23.032 107.255 24.866 107.843 27.274 107.843L40 107.843L40 111.665L8.92 111.665L8.92 107.843L20.26 107.843C19.084 107.087 18.174 106.051 17.53 104.735C16.886 103.391 16.564 101.893 16.564 100.241ZM21.268 69.7809C19.896 68.9969 18.776 67.8489 17.908 66.3369C17.04 64.8249 16.606 63.1029 16.606 61.1709C16.606 59.0989 17.096 57.2369 18.076 55.5849C19.056 53.9329 20.442 52.6309 22.234 51.6789C23.998 50.7269 26.056 50.2509 28.408 50.2509C30.732 50.2509 32.804 50.7269 34.624 51.6789C36.444 52.6309 37.858 53.9469 38.866 55.6269C39.874 57.2789 40.378 59.1269 40.378 61.1709C40.378 63.1589 39.944 64.9089 39.076 66.4209C38.208 67.9049 37.102 69.0249 35.758 69.7809L40 69.7809L40 73.6029L8.92 73.6029L8.92 69.7809L21.268 69.7809ZM28.408 54.1569C26.672 54.1569 25.16 54.5069 23.872 55.2069C22.584 55.9069 21.604 56.8589 20.932 58.0629C20.26 59.2389 19.924 60.5409 19.924 61.9689C19.924 63.3689 20.274 64.6709 20.974 65.8749C21.646 67.0509 22.64 68.0029 23.956 68.7309C25.244 69.4309 26.742 69.7809 28.45 69.7809C30.186 69.7809 31.712 69.4309 33.028 68.7309C34.316 68.0029 35.31 67.0509 36.01 65.8749C36.682 64.6709 37.018 63.3689 37.018 61.9689C37.018 60.5409 36.682 59.2389 36.01 58.0629C35.31 56.8589 34.316 55.9069 33.028 55.2069C31.712 54.5069 30.172 54.1569 28.408 54.1569ZM13.246 43.2461C13.246 43.9741 12.994 44.5901 12.49 45.0941C11.986 45.5981 11.37 45.8501 10.642 45.8501C9.91399 45.8501 9.29799 45.5981 8.79399 45.0941C8.28999 44.5901 8.03799 43.9741 8.03799 43.2461C8.03799 42.5461 8.28999 41.9581 8.79399 41.4821C9.29799 40.9781 9.91399 40.7261 10.642 40.7261C11.37 40.7261 11.986 40.9781 12.49 41.4821C12.994 41.9581 13.246 42.5461 13.246 43.2461ZM16.984 41.3981L40 41.3981L40 45.2201L16.984 45.2201L16.984 41.3981ZM16.564 23.6702C16.564 20.8702 17.418 18.6022 19.126 16.8662C20.806 15.1302 23.242 14.2622 26.434 14.2622L40 14.2622L40 18.0422L26.98 18.0422C24.684 18.0422 22.934 18.6162 21.73 19.7642C20.498 20.9122 19.882 22.4802 19.882 24.4682C19.882 26.4842 20.512 28.0942 21.772 29.2982C23.032 30.4742 24.866 31.0622 27.274 31.0622L40 31.0622L40 34.8842L16.984 34.8842L16.984 31.0622L20.26 31.0622C19.084 30.3062 18.174 29.2842 17.53 27.9962C16.886 26.6802 16.564 25.2382 16.564 23.6702Z" fill="white"/>
<path d="M105.917 44.78C105.106 43.2867 103.933 42.156 102.397 41.388C100.904 40.5773 99.133 40.172 97.085 40.172C93.5437 40.172 90.7063 41.3453 88.573 43.692C86.4397 45.996 85.373 49.0893 85.373 52.972C85.373 57.1107 86.4823 60.3533 88.701 62.7C90.9623 65.004 94.0557 66.156 97.981 66.156C100.669 66.156 102.93 65.4733 104.765 64.108C106.642 62.7427 108.008 60.78 108.861 58.22H94.973V50.156H118.781V60.332C117.97 63.0627 116.584 65.6013 114.621 67.948C112.701 70.2947 110.248 72.1933 107.261 73.644C104.274 75.0947 100.904 75.82 97.149 75.82C92.7117 75.82 88.7437 74.86 85.245 72.94C81.789 70.9773 79.0797 68.268 77.117 64.812C75.197 61.356 74.237 57.4093 74.237 52.972C74.237 48.5347 75.197 44.588 77.117 41.132C79.0797 37.6333 81.789 34.924 85.245 33.004C88.701 31.0413 92.6477 30.06 97.085 30.06C102.461 30.06 106.984 31.3613 110.653 33.964C114.365 36.5667 116.818 40.172 118.013 44.78H105.917ZM135.787 28.14V75.5H124.843V28.14H135.787ZM159.974 76.012C156.475 76.012 153.318 75.2653 150.502 73.772C147.729 72.2787 145.531 70.1453 143.91 67.372C142.331 64.5987 141.542 61.356 141.542 57.644C141.542 53.9747 142.353 50.7533 143.974 47.98C145.595 45.164 147.814 43.0093 150.63 41.516C153.446 40.0227 156.603 39.276 160.102 39.276C163.601 39.276 166.758 40.0227 169.574 41.516C172.39 43.0093 174.609 45.164 176.23 47.98C177.851 50.7533 178.662 53.9747 178.662 57.644C178.662 61.3133 177.83 64.556 176.166 67.372C174.545 70.1453 172.305 72.2787 169.446 73.772C166.63 75.2653 163.473 76.012 159.974 76.012ZM159.974 66.54C162.065 66.54 163.835 65.772 165.286 64.236C166.779 62.7 167.526 60.5027 167.526 57.644C167.526 54.7853 166.801 52.588 165.35 51.052C163.942 49.516 162.193 48.748 160.102 48.748C157.969 48.748 156.198 49.516 154.79 51.052C153.382 52.5453 152.678 54.7427 152.678 57.644C152.678 60.5027 153.361 62.7 154.726 64.236C156.134 65.772 157.883 66.54 159.974 66.54ZM195.412 45.74C196.692 43.7773 198.292 42.2413 200.212 41.132C202.132 39.98 204.265 39.404 206.612 39.404V50.988H203.604C200.873 50.988 198.825 51.5853 197.46 52.78C196.095 53.932 195.412 55.98 195.412 58.924V75.5H184.468V39.788H195.412V45.74ZM217.347 36.076C215.427 36.076 213.848 35.5213 212.611 34.412C211.416 33.26 210.819 31.852 210.819 30.188C210.819 28.4813 211.416 27.0733 212.611 25.964C213.848 24.812 215.427 24.236 217.347 24.236C219.224 24.236 220.76 24.812 221.955 25.964C223.192 27.0733 223.811 28.4813 223.811 30.188C223.811 31.852 223.192 33.26 221.955 34.412C220.76 35.5213 219.224 36.076 217.347 36.076ZM222.787 39.788V75.5H211.843V39.788H222.787ZM228.542 57.58C228.542 53.9107 229.225 50.6893 230.59 47.916C231.998 45.1427 233.897 43.0093 236.286 41.516C238.675 40.0227 241.342 39.276 244.286 39.276C246.803 39.276 249.001 39.788 250.878 40.812C252.798 41.836 254.27 43.18 255.294 44.844V39.788H266.238V75.5H255.294V70.444C254.227 72.108 252.734 73.452 250.814 74.476C248.937 75.5 246.739 76.012 244.222 76.012C241.321 76.012 238.675 75.2653 236.286 73.772C233.897 72.236 231.998 70.0813 230.59 67.308C229.225 64.492 228.542 61.2493 228.542 57.58ZM255.294 57.644C255.294 54.9133 254.526 52.7587 252.99 51.18C251.497 49.6013 249.662 48.812 247.486 48.812C245.31 48.812 243.454 49.6013 241.918 51.18C240.425 52.716 239.678 54.8493 239.678 57.58C239.678 60.3107 240.425 62.4867 241.918 64.108C243.454 65.6867 245.31 66.476 247.486 66.476C249.662 66.476 251.497 65.6867 252.99 64.108C254.526 62.5293 255.294 60.3747 255.294 57.644ZM303.974 75.948C300.689 75.948 297.745 75.4147 295.142 74.348C292.539 73.2813 290.449 71.7027 288.87 69.612C287.334 67.5213 286.523 65.004 286.438 62.06H298.086C298.257 63.724 298.833 65.004 299.814 65.9C300.795 66.7533 302.075 67.18 303.654 67.18C305.275 67.18 306.555 66.8173 307.494 66.092C308.433 65.324 308.902 64.2787 308.902 62.956C308.902 61.8467 308.518 60.9293 307.75 60.204C307.025 59.4787 306.107 58.8813 304.998 58.412C303.931 57.9427 302.395 57.4093 300.39 56.812C297.489 55.916 295.121 55.02 293.286 54.124C291.451 53.228 289.873 51.9053 288.55 50.156C287.227 48.4067 286.566 46.124 286.566 43.308C286.566 39.1267 288.081 35.8627 291.11 33.516C294.139 31.1267 298.086 29.932 302.95 29.932C307.899 29.932 311.889 31.1267 314.918 33.516C317.947 35.8627 319.569 39.148 319.782 43.372H307.942C307.857 41.9213 307.323 40.7907 306.342 39.98C305.361 39.1267 304.102 38.7 302.566 38.7C301.243 38.7 300.177 39.0627 299.366 39.788C298.555 40.4707 298.15 41.4733 298.15 42.796C298.15 44.2467 298.833 45.3773 300.198 46.188C301.563 46.9987 303.697 47.8733 306.598 48.812C309.499 49.7933 311.846 50.732 313.638 51.628C315.473 52.524 317.051 53.8253 318.374 55.532C319.697 57.2387 320.358 59.436 320.358 62.124C320.358 64.684 319.697 67.0093 318.374 69.1C317.094 71.1907 315.217 72.8547 312.742 74.092C310.267 75.3293 307.345 75.948 303.974 75.948ZM324.917 57.644C324.917 53.932 325.664 50.6893 327.157 47.916C328.693 45.1427 330.805 43.0093 333.493 41.516C336.224 40.0227 339.338 39.276 342.837 39.276C347.317 39.276 351.05 40.4493 354.037 42.796C357.066 45.1427 359.05 48.4493 359.989 52.716H348.341C347.36 49.9853 345.461 48.62 342.645 48.62C340.64 48.62 339.04 49.4093 337.845 50.988C336.65 52.524 336.053 54.7427 336.053 57.644C336.053 60.5453 336.65 62.7853 337.845 64.364C339.04 65.9 340.64 66.668 342.645 66.668C345.461 66.668 347.36 65.3027 348.341 62.572H359.989C359.05 66.7533 357.066 70.0387 354.037 72.428C351.008 74.8173 347.274 76.012 342.837 76.012C339.338 76.012 336.224 75.2653 333.493 73.772C330.805 72.2787 328.693 70.1453 327.157 67.372C325.664 64.5987 324.917 61.356 324.917 57.644ZM387.795 39.404C391.891 39.404 395.176 40.7693 397.651 43.5C400.126 46.188 401.363 49.9 401.363 54.636V75.5H390.483V56.108C390.483 53.7187 389.864 51.8627 388.627 50.54C387.39 49.2173 385.726 48.556 383.635 48.556C381.544 48.556 379.88 49.2173 378.643 50.54C377.406 51.8627 376.787 53.7187 376.787 56.108V75.5H365.843V28.14H376.787V44.588C377.896 43.0093 379.411 41.7507 381.331 40.812C383.251 39.8733 385.406 39.404 387.795 39.404ZM406.792 57.58C406.792 53.9107 407.475 50.6893 408.84 47.916C410.248 45.1427 412.147 43.0093 414.536 41.516C416.925 40.0227 419.592 39.276 422.536 39.276C425.053 39.276 427.251 39.788 429.128 40.812C431.048 41.836 432.52 43.18 433.544 44.844V39.788H444.488V75.5H433.544V70.444C432.477 72.108 430.984 73.452 429.064 74.476C427.187 75.5 424.989 76.012 422.472 76.012C419.571 76.012 416.925 75.2653 414.536 73.772C412.147 72.236 410.248 70.0813 408.84 67.308C407.475 64.492 406.792 61.2493 406.792 57.58ZM433.544 57.644C433.544 54.9133 432.776 52.7587 431.24 51.18C429.747 49.6013 427.912 48.812 425.736 48.812C423.56 48.812 421.704 49.6013 420.168 51.18C418.675 52.716 417.928 54.8493 417.928 57.58C417.928 60.3107 418.675 62.4867 420.168 64.108C421.704 65.6867 423.56 66.476 425.736 66.476C427.912 66.476 429.747 65.6867 431.24 64.108C432.776 62.5293 433.544 60.3747 433.544 57.644ZM470.326 48.876H464.438V75.5H453.494V48.876H449.526V39.788H453.494V38.764C453.494 34.3693 454.752 31.0413 457.27 28.78C459.787 26.476 463.478 25.324 468.342 25.324C469.152 25.324 469.75 25.3453 470.134 25.388V34.668C468.043 34.54 466.571 34.8387 465.718 35.564C464.864 36.2893 464.438 37.5907 464.438 39.468V39.788H470.326V48.876ZM493.388 48.876H487.5V75.5H476.556V48.876H472.588V39.788H476.556V38.764C476.556 34.3693 477.815 31.0413 480.332 28.78C482.849 26.476 486.54 25.324 491.404 25.324C492.215 25.324 492.812 25.3453 493.196 25.388V34.668C491.105 34.54 489.633 34.8387 488.78 35.564C487.927 36.2893 487.5 37.5907 487.5 39.468V39.788H493.388V48.876ZM496.355 57.58C496.355 53.9107 497.037 50.6893 498.403 47.916C499.811 45.1427 501.709 43.0093 504.099 41.516C506.488 40.0227 509.155 39.276 512.099 39.276C514.616 39.276 516.813 39.788 518.691 40.812C520.611 41.836 522.083 43.18 523.107 44.844V39.788H534.051V75.5H523.107V70.444C522.04 72.108 520.547 73.452 518.627 74.476C516.749 75.5 514.552 76.012 512.035 76.012C509.133 76.012 506.488 75.2653 504.099 73.772C501.709 72.236 499.811 70.0813 498.403 67.308C497.037 64.492 496.355 61.2493 496.355 57.58ZM523.107 57.644C523.107 54.9133 522.339 52.7587 520.803 51.18C519.309 49.6013 517.475 48.812 515.299 48.812C513.123 48.812 511.267 49.6013 509.731 51.18C508.237 52.716 507.491 54.8493 507.491 57.58C507.491 60.3107 508.237 62.4867 509.731 64.108C511.267 65.6867 513.123 66.476 515.299 66.476C517.475 66.476 519.309 65.6867 520.803 64.108C522.339 62.5293 523.107 60.3747 523.107 57.644ZM552.912 45.74C554.192 43.7773 555.792 42.2413 557.712 41.132C559.632 39.98 561.765 39.404 564.112 39.404V50.988H561.104C558.373 50.988 556.325 51.5853 554.96 52.78C553.595 53.932 552.912 55.98 552.912 58.924V75.5H541.968V39.788H552.912V45.74ZM567.167 57.644C567.167 53.932 567.914 50.6893 569.407 47.916C570.943 45.1427 573.055 43.0093 575.743 41.516C578.474 40.0227 581.588 39.276 585.087 39.276C589.567 39.276 593.3 40.4493 596.287 42.796C599.316 45.1427 601.3 48.4493 602.239 52.716H590.591C589.61 49.9853 587.711 48.62 584.895 48.62C582.89 48.62 581.29 49.4093 580.095 50.988C578.9 52.524 578.303 54.7427 578.303 57.644C578.303 60.5453 578.9 62.7853 580.095 64.364C581.29 65.9 582.89 66.668 584.895 66.668C587.711 66.668 589.61 65.3027 590.591 62.572H602.239C601.3 66.7533 599.316 70.0387 596.287 72.428C593.258 74.8173 589.524 76.012 585.087 76.012C581.588 76.012 578.474 75.2653 575.743 73.772C573.055 72.2787 570.943 70.1453 569.407 67.372C567.914 64.5987 567.167 61.356 567.167 57.644ZM618.333 66.476H633.821V75.5H606.109V66.796L620.957 48.812H606.237V39.788H633.501V48.492L618.333 66.476ZM676.323 39.788L653.923 92.46H642.147L650.339 74.284L635.811 39.788H648.035L656.291 62.124L664.483 39.788H676.323ZM702.105 75.5L691.225 60.524V75.5H680.281V28.14H691.225V54.316L702.041 39.788H715.545L700.697 57.708L715.673 75.5H702.105Z" fill="white"/>
<path d="M96.7186 98.256V102.104H80.9626V114.324H93.7546V118.172H80.9626V134.5H76.2306V98.256H96.7186ZM121.518 134.5L112.886 119.68H107.166V134.5H102.434V98.256H114.134C116.872 98.256 119.178 98.724 121.05 99.66C122.956 100.596 124.378 101.861 125.314 103.456C126.25 105.051 126.718 106.871 126.718 108.916C126.718 111.412 125.99 113.613 124.534 115.52C123.112 117.427 120.963 118.692 118.086 119.316L127.186 134.5H121.518ZM107.166 115.884H114.134C116.699 115.884 118.623 115.26 119.906 114.012C121.188 112.729 121.83 111.031 121.83 108.916C121.83 106.767 121.188 105.103 119.906 103.924C118.658 102.745 116.734 102.156 114.134 102.156H107.166V115.884ZM150.502 134.864C147.14 134.864 144.072 134.084 141.298 132.524C138.525 130.929 136.324 128.728 134.694 125.92C133.1 123.077 132.302 119.888 132.302 116.352C132.302 112.816 133.1 109.644 134.694 106.836C136.324 103.993 138.525 101.792 141.298 100.232C144.072 98.6373 147.14 97.84 150.502 97.84C153.9 97.84 156.985 98.6373 159.758 100.232C162.532 101.792 164.716 103.976 166.31 106.784C167.905 109.592 168.702 112.781 168.702 116.352C168.702 119.923 167.905 123.112 166.31 125.92C164.716 128.728 162.532 130.929 159.758 132.524C156.985 134.084 153.9 134.864 150.502 134.864ZM150.502 130.756C153.033 130.756 155.304 130.167 157.314 128.988C159.36 127.809 160.954 126.128 162.098 123.944C163.277 121.76 163.866 119.229 163.866 116.352C163.866 113.44 163.277 110.909 162.098 108.76C160.954 106.576 159.377 104.895 157.366 103.716C155.356 102.537 153.068 101.948 150.502 101.948C147.937 101.948 145.649 102.537 143.638 103.716C141.628 104.895 140.033 106.576 138.854 108.76C137.71 110.909 137.138 113.44 137.138 116.352C137.138 119.229 137.71 121.76 138.854 123.944C140.033 126.128 141.628 127.809 143.638 128.988C145.684 130.167 147.972 130.756 150.502 130.756ZM203.445 134.5H198.713L179.681 105.64V134.5H174.949V98.204H179.681L198.713 127.012V98.204H203.445V134.5ZM233.82 98.256V102.104H223.94V134.5H219.208V102.104H209.276V98.256H233.82ZM244.377 102.104V114.22H257.585V118.12H244.377V130.6H259.145V134.5H239.645V98.204H259.145V102.104H244.377ZM294.801 134.5H290.069L271.037 105.64V134.5H266.305V98.204H271.037L290.069 127.012V98.204H294.801V134.5ZM314.151 98.256C318.103 98.256 321.518 99.0013 324.395 100.492C327.307 101.948 329.526 104.045 331.051 106.784C332.611 109.523 333.391 112.747 333.391 116.456C333.391 120.165 332.611 123.389 331.051 126.128C329.526 128.832 327.307 130.912 324.395 132.368C321.518 133.789 318.103 134.5 314.151 134.5H302.867V98.256H314.151ZM314.151 130.6C318.831 130.6 322.402 129.369 324.863 126.908C327.325 124.412 328.555 120.928 328.555 116.456C328.555 111.949 327.307 108.431 324.811 105.9C322.35 103.369 318.797 102.104 314.151 102.104H307.599V130.6H314.151ZM358.228 102.104V114.22H371.436V118.12H358.228V130.6H372.996V134.5H353.496V98.204H372.996V102.104H358.228ZM408.652 134.5H403.92L384.888 105.64V134.5H380.156V98.204H384.888L403.92 127.012V98.204H408.652V134.5ZM439.027 98.256V102.104H429.147V134.5H424.415V102.104H414.483V98.256H439.027ZM490.404 98.256L479.9 134.5H474.596L466.172 105.328L457.436 134.5L452.184 134.552L442.044 98.256H447.088L454.992 128.988L463.728 98.256H469.032L477.352 128.884L485.308 98.256H490.404ZM500.314 98.256V134.5H495.582V98.256H500.314ZM506.611 116.352C506.611 112.816 507.408 109.644 509.003 106.836C510.598 103.993 512.764 101.775 515.503 100.18C518.276 98.5853 521.344 97.788 524.707 97.788C528.659 97.788 532.108 98.7413 535.055 100.648C538.002 102.555 540.151 105.259 541.503 108.76H535.835C534.83 106.576 533.374 104.895 531.467 103.716C529.595 102.537 527.342 101.948 524.707 101.948C522.176 101.948 519.906 102.537 517.895 103.716C515.884 104.895 514.307 106.576 513.163 108.76C512.019 110.909 511.447 113.44 511.447 116.352C511.447 119.229 512.019 121.76 513.163 123.944C514.307 126.093 515.884 127.757 517.895 128.936C519.906 130.115 522.176 130.704 524.707 130.704C527.342 130.704 529.595 130.132 531.467 128.988C533.374 127.809 534.83 126.128 535.835 123.944H541.503C540.151 127.411 538.002 130.097 535.055 132.004C532.108 133.876 528.659 134.812 524.707 134.812C521.344 134.812 518.276 134.032 515.503 132.472C512.764 130.877 510.598 128.676 509.003 125.868C507.408 123.06 506.611 119.888 506.611 116.352ZM568.203 134.5L553.279 117.964V134.5H548.547V98.256H553.279V115.052L568.255 98.256H574.235L557.803 116.404L574.391 134.5H568.203ZM584.408 130.652H597.096V134.5H579.676V98.256H584.408V130.652ZM606.853 102.104V114.22H620.061V118.12H606.853V130.6H621.621V134.5H602.121V98.204H621.621V102.104H606.853ZM647.865 134.5L639.233 119.68H633.513V134.5H628.781V98.256H640.481C643.22 98.256 645.525 98.724 647.397 99.66C649.304 100.596 650.725 101.861 651.661 103.456C652.597 105.051 653.065 106.871 653.065 108.916C653.065 111.412 652.337 113.613 650.881 115.52C649.46 117.427 647.311 118.692 644.433 119.316L653.533 134.5H647.865ZM633.513 115.884H640.481C643.047 115.884 644.971 115.26 646.253 114.012C647.536 112.729 648.177 111.031 648.177 108.916C648.177 106.767 647.536 105.103 646.253 103.924C645.005 102.745 643.081 102.156 640.481 102.156H633.513V115.884ZM665.15 98.256V134.5H660.418V98.256H665.15ZM701.711 134.5H696.979L677.947 105.64V134.5H673.215V98.204H677.947L696.979 127.012V98.204H701.711V134.5Z" fill="#FF3F79"/>
</svg>
